<svg width="20px" height="21px" viewBox="0 0 20 21" version="1.1" xmlns="http://www.w3.org/2000/svg" xmlns:xlink="http://www.w3.org/1999/xlink">
    <g id="Page-1" stroke="none" stroke-width="1" fill="none" fill-rule="evenodd">
        <g id="Icons" transform="translate(-237.000000, -79.000000)">
            <g id="Navigation">
                <g id="DIRECTIONAL" transform="translate(18.000000, 34.000000)">
                    <g id="Directional" transform="translate(0.000000, 32.000000)">
                        <g id="Home" transform="translate(207.000000, 1.000000)">
                            <g id="icon_home_selected">
                                <rect id="Dev-Guide" opacity="0.5" x="0" y="0" width="44" height="44"></rect>
                                <rect id="Visual-Guide" x="12" y="12" width="20" height="20"></rect>
                                <path d="M22.1206008,28.5038837 C19.3146375,28.5038837 16.7444063,26.2955262 16.7444063,22.3399932 C16.7444063,19.2356032 18.6708885,16.2275123 22.1386569,16.2275123 C23.6410723,16.2275123 27.4491473,16.7423611 27.4491473,22.3399932 C27.4491473,27.9519197 23.4727997,28.5038837 22.1206008,28.5038837 L22.1206008,28.5038837 Z M31.5458687,13.3701394 C31.5458687,13.1948451 31.4021725,13.0516504 31.2276305,13.0516504 L27.8398606,13.0516504 C27.6650678,13.0516504 27.5218732,13.1948451 27.5218732,13.3701394 L27.5218732,14.2588993 C27.5218732,14.4083634 27.4215617,14.4600238 27.299934,14.3732544 C26.0946914,13.4987889 24.3121562,12.5608764 22.1669949,12.5608764 C20.9617523,12.5608764 19.8104271,12.7730353 18.7453698,13.1910834 C17.6788079,13.6093823 16.6666649,14.2468619 15.7365266,15.0862183 C14.6772372,16.0492086 13.8714851,17.1473687 13.3433451,18.3488496 C12.8137004,19.5510829 12.5458687,20.8937522 12.5458687,22.3399932 C12.5458687,23.6896843 12.7833562,24.9541107 13.2513093,26.0981633 C13.7195132,27.2419651 14.4319756,28.3002513 15.3696373,29.2431794 C16.3075497,30.1868598 17.3558049,30.9038362 18.4853123,31.3745478 C19.6138166,31.8450088 20.8581806,32.0832486 22.1842986,32.0832486 C24.4651312,32.0832486 26.1761945,31.1124841 27.2966739,30.2292414 C27.4205586,30.1357009 27.5218732,30.1861074 27.5218732,30.3408379 L27.5218732,31.273484 C27.5218732,31.4485276 27.6650678,31.5917222 27.8398606,31.5917222 L31.2276305,31.5917222 C31.4021725,31.5917222 31.5458687,31.4485276 31.5458687,31.273484 L31.5458687,13.3701394 Z" id="Shape" fill="#2D2D2D" fill-rule="evenodd"></path>
                            </g>
                        </g>
                    </g>
                </g>
            </g>
        </g>
    </g>
</svg>