<?xml version="1.0" encoding="UTF-8"?>
<svg width="20px" height="20px" viewBox="0 0 20 20" version="1.1" xmlns="http://www.w3.org/2000/svg" xmlns:xlink="http://www.w3.org/1999/xlink">
    <!-- Generator: sketchtool 41.2 (35397) - http://www.bohemiancoding.com/sketch -->
    <title>85D62512-9C80-4A1C-BC9A-E1F8FA7D3331</title>
    <desc>Created with sketchtool.</desc>
    <defs></defs>
    <g id="Page-1" stroke="none" stroke-width="1" fill="none" fill-rule="evenodd">
        <g id="Icons" transform="translate(-651.000000, -79.000000)">
            <g id="Navigation">
                <g id="DIRECTIONAL" transform="translate(18.000000, 34.000000)">
                    <g id="Directional" transform="translate(0.000000, 32.000000)">
                        <g id="Shopping-Bag" transform="translate(634.000000, 10.000000)">
                            <g id="icon_shopping_bag" transform="translate(0.000000, 3.000000)">
                                <polygon id="Rectangle-1176" stroke="#2D2D2D" stroke-width="2" points="0 19 1.9793691e-08 6 17.9999995 6 18 18.9866501"></polygon>
                                <path d="M5.12601749,7 L3.08295844,7 C3.0283988,6.67479153 3,6.34071221 3,6 C3,2.6862915 5.6862915,0 9,0 C12.3137085,0 15,2.6862915 15,6 C15,6.34071221 14.9716012,6.67479153 14.9170416,7 L12.8739825,7 C12.956247,6.68038008 13,6.34529957 13,6 C13,3.790861 11.209139,2 9,2 C6.790861,2 5,3.790861 5,6 C5,6.34529957 5.043753,6.68038008 5.12601749,7 Z" id="Oval-146" fill="#2D2D2D" fill-rule="evenodd"></path>
                            </g>
                        </g>
                    </g>
                </g>
            </g>
        </g>
    </g>
</svg>