<?xml version="1.0" encoding="UTF-8"?>
<svg width="29px" height="20px" viewBox="0 0 29 20" version="1.1" xmlns="http://www.w3.org/2000/svg" xmlns:xlink="http://www.w3.org/1999/xlink">
    <!-- Generator: sketchtool 41.2 (35397) - http://www.bohemiancoding.com/sketch -->
    <title>CB145F61-2F51-4D6A-AF69-818CBF6F6526</title>
    <desc>Created with sketchtool.</desc>
    <defs>
        <circle id="path-1" cx="19" cy="9" r="9"></circle>
        <mask id="mask-2" maskContentUnits="userSpaceOnUse" maskUnits="objectBoundingBox" x="0" y="0" width="18" height="18" fill="white">
            <use xlink:href="#path-1"></use>
        </mask>
    </defs>
    <g id="Page-1" stroke="none" stroke-width="1" fill="none" fill-rule="evenodd">
        <g id="Icons" transform="translate(-30.000000, -128.000000)">
            <g id="Navigation">
                <g id="DIRECTIONAL" transform="translate(18.000000, 34.000000)">
                    <g id="Directional" transform="translate(0.000000, 32.000000)">
                        <g id="Categories" transform="translate(4.000000, 49.000000)">
                            <g id="icon_search_selected">
                                <rect id="Dev-Guide" x="0" y="0" width="44" height="44"></rect>
                                <rect id="Visual-Guide" x="12" y="12" width="20" height="20"></rect>
                                <g id="Shape--" stroke-width="1" fill-rule="evenodd" transform="translate(8.000000, 13.000000)">
                                    <path d="M6.04484302,8 L0,8 L0,10 L6.04484302,10 C6.01516261,9.67063797 6,9.33708969 6,9 C6,8.66291031 6.01516261,8.32936203 6.04484302,8 Z M7.19941919,14 L0,14 L0,16 L8.51432422,16 C8.0070678,15.3857846 7.56521164,14.7155634 7.19941919,14 Z M8.51432422,2 L0,2 L0,4 L7.19941919,4 C7.56521164,3.28443658 8.0070678,2.61421543 8.51432422,2 Z" id="Rectangle-4502" fill="#2D2D2D"></path>
                                    <use id="Oval-702" stroke="#2D2D2D" mask="url(#mask-2)" stroke-width="4" xlink:href="#path-1"></use>
                                    <path d="M25,16 L27,18" id="Line" stroke="#2D2D2D" stroke-width="2" stroke-linecap="square"></path>
                                </g>
                            </g>
                        </g>
                    </g>
                </g>
            </g>
        </g>
    </g>
</svg>